<?xml version="1.0" standalone="no"?>
<!DOCTYPE svg PUBLIC "-//W3C//DTD SVG 20010904//EN"
 "http://www.w3.org/TR/2001/REC-SVG-20010904/DTD/svg10.dtd">
<svg version="1.0" xmlns="http://www.w3.org/2000/svg"
viewBox="0 0 512.000000 256"
 preserveAspectRatio="xMidYMid meet">

<g transform="translate(0.000000,384.000000) scale(0.100000,-0.100000)"
fill="#000000" stroke="none">
<path d="M1758 3410 c-181 -29 -354 -120 -608 -320 -387 -305 -487 -360 -652
-360 -130 0 -255 39 -377 118 -35 23 -72 42 -81 42 -24 0 -40 -21 -40 -53 0
-88 151 -427 255 -572 246 -343 553 -520 969 -556 364 -33 721 58 1011 255 92
63 251 212 295 278 14 21 27 38 30 38 3 0 16 -17 30 -38 14 -20 66 -77 115
-127 326 -326 832 -474 1329 -389 427 73 757 341 971 786 60 126 115 281 115
325 0 32 -16 53 -40 53 -9 0 -46 -19 -81 -42 -84 -54 -148 -82 -236 -102 -140
-31 -251 -18 -378 46 -84 43 -147 87 -330 233 -282 224 -440 318 -611 367
-107 30 -284 30 -396 0 -136 -37 -267 -112 -408 -233 l-80 -69 -81 70 c-145
125 -269 195 -405 230 -90 23 -236 32 -316 20z"/>
</g>
</svg>
